<svg width="24" height="24" viewBox="0 0 24 24" fill="none" xmlns="http://www.w3.org/2000/svg">
<path d="M21.8474 18.7033C21.4812 19.5418 21.0477 20.3136 20.5454 21.0232C19.8607 21.9906 19.3001 22.6602 18.868 23.032C18.1983 23.6424 17.4807 23.955 16.7123 23.9728C16.1607 23.9728 15.4954 23.8172 14.7211 23.5017C13.9441 23.1876 13.2301 23.032 12.5773 23.032C11.8926 23.032 11.1583 23.1876 10.3729 23.5017C9.58622 23.8172 8.95251 23.9816 8.468 23.9979C7.73114 24.0291 6.99668 23.7076 6.26356 23.032C5.79564 22.6276 5.21037 21.9343 4.50924 20.9521C3.75698 19.9033 3.13853 18.687 2.65402 17.3004C2.13512 15.8026 1.875 14.3523 1.875 12.9482C1.875 11.3398 2.22571 9.95259 2.92819 8.79011C3.48027 7.85636 4.21474 7.11979 5.13398 6.57906C6.05322 6.03834 7.04646 5.76279 8.11609 5.74516C8.70136 5.74516 9.46887 5.92456 10.4226 6.27715C11.3737 6.63091 11.9844 6.81031 12.2522 6.81031C12.4523 6.81031 13.1307 6.60054 14.2808 6.18233C15.3684 5.79449 16.2863 5.63391 17.0382 5.69716C19.0758 5.86012 20.6066 6.6561 21.6247 8.09013C19.8024 9.18432 18.9009 10.7169 18.9189 12.6829C18.9353 14.2142 19.4959 15.4886 20.5977 16.5004C21.097 16.97 21.6546 17.333 22.275 17.5907C22.1405 17.9774 21.9984 18.3477 21.8474 18.7033V18.7033ZM17.1743 0.480137C17.1743 1.68041 16.7317 2.8011 15.8497 3.8384C14.7853 5.07155 13.4979 5.78412 12.1018 5.67168C12.084 5.52769 12.0737 5.37614 12.0737 5.21688C12.0737 4.06462 12.5798 2.83147 13.4788 1.82321C13.9275 1.3127 14.4983 0.888228 15.1905 0.549615C15.8811 0.216055 16.5344 0.031589 17.1488 0C17.1668 0.160458 17.1743 0.320926 17.1743 0.480121V0.480137Z" fill="white"/>
</svg>
